<?xml version="1.0" encoding="UTF-8" standalone="no"?>
<!DOCTYPE svg PUBLIC "-//W3C//DTD SVG 1.1//EN"
 "http://www.w3.org/Graphics/SVG/1.1/DTD/svg11.dtd">
<!-- Generated by graphviz version 2.26.3 (20100126.1600)
 -->
<!-- Title: G Pages: 1 -->
<svg width="1070pt" height="2186pt"
 viewBox="0.00 0.00 1070.00 2186.00" xmlns="http://www.w3.org/2000/svg" xmlns:xlink="http://www.w3.org/1999/xlink">
<g id="graph1" class="graph" transform="scale(1 1) rotate(0) translate(4 2182)">
<title>G</title>
<polygon fill="white" stroke="white" points="-4,5 -4,-2182 1067,-2182 1067,5 -4,5"/>
<g id="graph2" class="cluster"><title>cluster_global</title>
<polyline fill="none" stroke="gray" points="306,-422 1042,-422 "/>
<path fill="none" stroke="gray" d="M1042,-422C1048,-422 1054,-428 1054,-434"/>
<polyline fill="none" stroke="gray" points="1054,-434 1054,-2158 "/>
<path fill="none" stroke="gray" d="M1054,-2158C1054,-2164 1048,-2170 1042,-2170"/>
<polyline fill="none" stroke="gray" points="1042,-2170 306,-2170 "/>
<path fill="none" stroke="gray" d="M306,-2170C300,-2170 294,-2164 294,-2158"/>
<polyline fill="none" stroke="gray" points="294,-2158 294,-434 "/>
<path fill="none" stroke="gray" d="M294,-434C294,-428 300,-422 306,-422"/>
<text text-anchor="middle" x="674" y="-2156.1" font-family="Times Roman,serif" font-size="11.00" fill="gray">global</text>
</g>
<!-- \\Controller_Translations -->
<g id="node2" class="node"><title>\\Controller_Translations</title>
<a xlink:href="classes.Controller.Translations.html" xlink:title="Controller_Translations" target="_parent">
<polygon fill="none" stroke="black" points="1046,-2032 874,-2032 874,-1996 1046,-1996 1046,-2032"/>
<text text-anchor="middle" x="960" y="-2011.1" font-family="Courier,monospace" font-size="11.00">Controller_Translations</text>
</a>
</g>
<!-- \\Controller_Core -->
<g id="node5" class="node"><title>\\Controller_Core</title>
<a xlink:href="classes.Controller.Core.html" xlink:title="Controller_Core" target="_parent">
<polygon fill="none" stroke="black" points="725,-2086 607,-2086 607,-2050 725,-2050 725,-2086"/>
<text text-anchor="middle" x="666" y="-2065.1" font-family="Courier,monospace" font-size="11.00">Controller_Core</text>
</a>
</g>
<!-- \\Controller_Translations&#45;&gt;\\Controller_Core -->
<g id="edge3" class="edge"><title>\\Controller_Translations&#45;&gt;\\Controller_Core</title>
<path fill="none" stroke="black" d="M873.777,-2029.84C829.636,-2037.94 776.62,-2047.68 735.19,-2055.29"/>
<polygon fill="none" stroke="black" points="734.393,-2051.88 725.19,-2057.13 735.658,-2058.76 734.393,-2051.88"/>
</g>
<!-- \\Controller_Users -->
<g id="node3" class="node"><title>\\Controller_Users</title>
<a xlink:href="classes.Controller.Users.html" xlink:title="Controller_Users" target="_parent">
<polygon fill="none" stroke="black" points="1022,-2140 898,-2140 898,-2104 1022,-2104 1022,-2140"/>
<text text-anchor="middle" x="960" y="-2119.1" font-family="Courier,monospace" font-size="11.00">Controller_Users</text>
</a>
</g>
<!-- \\Controller_Users&#45;&gt;\\Controller_Core -->
<g id="edge5" class="edge"><title>\\Controller_Users&#45;&gt;\\Controller_Core</title>
<path fill="none" stroke="black" d="M897.29,-2110.48C849.643,-2101.73 784.151,-2089.7 735.018,-2080.68"/>
<polygon fill="none" stroke="black" points="735.575,-2077.22 725.107,-2078.86 734.31,-2084.11 735.575,-2077.22"/>
</g>
<!-- \\Controller_Languages -->
<g id="node4" class="node"><title>\\Controller_Languages</title>
<a xlink:href="classes.Controller.Languages.html" xlink:title="Controller_Languages" target="_parent">
<polygon fill="none" stroke="black" points="1036,-2086 884,-2086 884,-2050 1036,-2050 1036,-2086"/>
<text text-anchor="middle" x="960" y="-2065.1" font-family="Courier,monospace" font-size="11.00">Controller_Languages</text>
</a>
</g>
<!-- \\Controller_Languages&#45;&gt;\\Controller_Core -->
<g id="edge7" class="edge"><title>\\Controller_Languages&#45;&gt;\\Controller_Core</title>
<path fill="none" stroke="black" d="M883.905,-2068C837.973,-2068 779.895,-2068 735.251,-2068"/>
<polygon fill="none" stroke="black" points="735.075,-2064.5 725.075,-2068 735.075,-2071.5 735.075,-2064.5"/>
</g>
<!-- \\Controller_Base_Core -->
<g id="node6" class="node"><title>\\Controller_Base_Core</title>
<a xlink:href="classes.Controller.Base.Core.html" xlink:title="Controller_Base_Core" target="_parent">
<polygon fill="none" stroke="black" points="454,-2086 302,-2086 302,-2050 454,-2050 454,-2086"/>
<text text-anchor="middle" x="378" y="-2065.1" font-family="Courier,monospace" font-size="11.00">Controller_Base_Core</text>
</a>
</g>
<!-- \\Controller_Core&#45;&gt;\\Controller_Base_Core -->
<g id="edge9" class="edge"><title>\\Controller_Core&#45;&gt;\\Controller_Base_Core</title>
<path fill="none" stroke="black" d="M606.675,-2068C565.648,-2068 510.398,-2068 464.484,-2068"/>
<polygon fill="none" stroke="black" points="464.237,-2064.5 454.237,-2068 464.237,-2071.5 464.237,-2064.5"/>
</g>
<!-- \\Controller_Template -->
<g id="node53" class="node"><title>\\Controller_Template</title>
<ellipse fill="none" stroke="black" cx="113" cy="-2068" rx="113.137" ry="18.3848"/>
<text text-anchor="middle" x="113" y="-2064.4" font-family="Times Roman,serif" font-size="14.00" fill="gray">\Controller_Template</text>
</g>
<!-- \\Controller_Base_Core&#45;&gt;\\Controller_Template -->
<g id="edge11" class="edge"><title>\\Controller_Base_Core&#45;&gt;\\Controller_Template</title>
<path fill="none" stroke="black" d="M301.707,-2068C281.287,-2068 258.681,-2068 236.419,-2068"/>
<polygon fill="none" stroke="black" points="236.223,-2064.5 226.223,-2068 236.223,-2071.5 236.223,-2064.5"/>
</g>
<!-- \\Dir -->
<g id="node7" class="node"><title>\\Dir</title>
<a xlink:href="classes.Dir.html" xlink:title="Dir" target="_parent">
<polygon fill="none" stroke="black" points="987,-1978 933,-1978 933,-1942 987,-1942 987,-1978"/>
<text text-anchor="middle" x="960" y="-1957.1" font-family="Courier,monospace" font-size="11.00">Dir</text>
</a>
</g>
<!-- \\File -->
<g id="node8" class="node"><title>\\File</title>
<a xlink:href="classes.File.html" xlink:title="File" target="_parent">
<polygon fill="none" stroke="black" points="987,-1168 933,-1168 933,-1132 987,-1132 987,-1168"/>
<text text-anchor="middle" x="960" y="-1147.1" font-family="Courier,monospace" font-size="11.00">File</text>
</a>
</g>
<!-- \\Kohana_File -->
<g id="node55" class="node"><title>\\Kohana_File</title>
<ellipse fill="none" stroke="black" cx="666" cy="-396" rx="72.832" ry="18.3848"/>
<text text-anchor="middle" x="666" y="-392.4" font-family="Times Roman,serif" font-size="14.00" fill="gray">\Kohana_File</text>
</g>
<!-- \\File&#45;&gt;\\Kohana_File -->
<g id="edge13" class="edge"><title>\\File&#45;&gt;\\Kohana_File</title>
<path fill="none" stroke="black" d="M932.791,-1149C913.321,-1146.73 888.144,-1140.34 874,-1123 774.466,-1000.96 910.046,-532.571 802,-418 787.616,-402.747 767.137,-395.36 746.424,-392.241"/>
<polygon fill="none" stroke="black" points="746.605,-388.738 736.262,-391.037 745.781,-395.689 746.605,-388.738"/>
</g>
<!-- \\Request -->
<g id="node9" class="node"><title>\\Request</title>
<a xlink:href="classes.Request.html" xlink:title="Request" target="_parent">
<polygon fill="none" stroke="black" points="992,-1114 928,-1114 928,-1078 992,-1078 992,-1114"/>
<text text-anchor="middle" x="960" y="-1093.1" font-family="Courier,monospace" font-size="11.00">Request</text>
</a>
</g>
<!-- \\Kohana_Request -->
<g id="node57" class="node"><title>\\Kohana_Request</title>
<ellipse fill="none" stroke="black" cx="666" cy="-342" rx="94.9596" ry="18.3848"/>
<text text-anchor="middle" x="666" y="-338.4" font-family="Times Roman,serif" font-size="14.00" fill="gray">\Kohana_Request</text>
</g>
<!-- \\Request&#45;&gt;\\Kohana_Request -->
<g id="edge15" class="edge"><title>\\Request&#45;&gt;\\Kohana_Request</title>
<path fill="none" stroke="black" d="M927.783,-1094.33C909.179,-1091.58 886.963,-1084.88 874,-1069 775.12,-947.854 907.287,-484.621 802,-369 793.304,-359.45 782.278,-352.717 770.282,-348.04"/>
<polygon fill="none" stroke="black" points="771.074,-344.613 760.479,-344.716 768.825,-351.242 771.074,-344.613"/>
</g>
<!-- \\Singleton -->
<g id="node10" class="node"><title>\\Singleton</title>
<a xlink:href="classes.Singleton.html" xlink:title="Singleton" target="_parent">
<polygon fill="none" stroke="black" points="416,-1600 340,-1600 340,-1564 416,-1564 416,-1600"/>
<text text-anchor="middle" x="378" y="-1579.1" font-family="Courier,monospace" font-size="11.00">Singleton</text>
</a>
</g>
<!-- \\Exception_Json -->
<g id="node11" class="node"><title>\\Exception_Json</title>
<a xlink:href="classes.Exception.Json.html" xlink:title="Exception_Json" target="_parent">
<polygon fill="none" stroke="black" points="1015,-952 905,-952 905,-916 1015,-916 1015,-952"/>
<text text-anchor="middle" x="960" y="-931.1" font-family="Courier,monospace" font-size="11.00">Exception_Json</text>
</a>
</g>
<!-- \\Exception -->
<g id="node59" class="node"><title>\\Exception</title>
<ellipse fill="none" stroke="black" cx="666" cy="-288" rx="62.9325" ry="18.3848"/>
<text text-anchor="middle" x="666" y="-284.4" font-family="Times Roman,serif" font-size="14.00" fill="gray">\Exception</text>
</g>
<!-- \\Exception_Json&#45;&gt;\\Exception -->
<g id="edge17" class="edge"><title>\\Exception_Json&#45;&gt;\\Exception</title>
<path fill="none" stroke="black" d="M904.407,-926.603C892.838,-922.557 881.806,-916.384 874,-907 704.509,-703.225 982.265,-509.309 802,-315 785.741,-297.474 761.629,-289.483 738.205,-286.266"/>
<polygon fill="none" stroke="black" points="738.556,-282.784 728.233,-285.166 737.788,-289.741 738.556,-282.784"/>
</g>
<!-- \\Exception_Tools -->
<g id="node12" class="node"><title>\\Exception_Tools</title>
<a xlink:href="classes.Exception.Tools.html" xlink:title="Exception_Tools" target="_parent">
<polygon fill="none" stroke="black" points="1019,-1060 901,-1060 901,-1024 1019,-1024 1019,-1060"/>
<text text-anchor="middle" x="960" y="-1039.1" font-family="Courier,monospace" font-size="11.00">Exception_Tools</text>
</a>
</g>
<!-- \\Exception_Tools&#45;&gt;\\Exception -->
<g id="edge19" class="edge"><title>\\Exception_Tools&#45;&gt;\\Exception</title>
<path fill="none" stroke="black" d="M900.743,-1033.39C890.495,-1029.35 880.927,-1023.49 874,-1015 775.12,-893.854 907.287,-430.621 802,-315 785.904,-297.324 761.829,-289.299 738.388,-286.097"/>
<polygon fill="none" stroke="black" points="738.727,-282.614 728.406,-285.006 737.966,-289.572 738.727,-282.614"/>
</g>
<!-- \\Exception_Tools_Missing -->
<g id="node13" class="node"><title>\\Exception_Tools_Missing</title>
<a xlink:href="classes.Exception.Tools.Missing.html" xlink:title="Exception_Tools_Missing" target="_parent">
<polygon fill="none" stroke="black" points="1046,-1006 874,-1006 874,-970 1046,-970 1046,-1006"/>
<text text-anchor="middle" x="960" y="-985.1" font-family="Courier,monospace" font-size="11.00">Exception_Tools_Missing</text>
</a>
</g>
<!-- \\Exception_Tools_Missing&#45;&gt;\\Exception -->
<g id="edge21" class="edge"><title>\\Exception_Tools_Missing&#45;&gt;\\Exception</title>
<path fill="none" stroke="black" d="M883.489,-969.948C879.99,-967.349 876.785,-964.383 874,-961 690.381,-737.974 997.413,-527.768 802,-315 785.829,-297.393 761.737,-289.383 738.304,-286.175"/>
<polygon fill="none" stroke="black" points="738.648,-282.691 728.326,-285.079 737.885,-289.65 738.648,-282.691"/>
</g>
<!-- \\Pretty_Form -->
<g id="node14" class="node"><title>\\Pretty_Form</title>
<a xlink:href="classes.Pretty.Form.html" xlink:title="Pretty_Form" target="_parent">
<polygon fill="none" stroke="black" points="711,-1519 621,-1519 621,-1483 711,-1483 711,-1519"/>
<text text-anchor="middle" x="666" y="-1498.1" font-family="Courier,monospace" font-size="11.00">Pretty_Form</text>
</a>
</g>
<!-- \\Pretty_Form&#45;&gt;\\Singleton -->
<g id="edge23" class="edge"><title>\\Pretty_Form&#45;&gt;\\Singleton</title>
<path fill="none" stroke="black" d="M620.34,-1507.46C593.636,-1511.88 559.485,-1518.65 530,-1528 496.62,-1538.59 490.975,-1548.21 458,-1560 447.927,-1563.6 436.965,-1566.96 426.479,-1569.92"/>
<polygon fill="none" stroke="black" points="425.33,-1566.61 416.615,-1572.63 427.185,-1573.36 425.33,-1566.61"/>
</g>
<!-- \\Media -->
<g id="node15" class="node"><title>\\Media</title>
<a xlink:href="classes.Media.html" xlink:title="Media" target="_parent">
<polygon fill="none" stroke="black" points="987,-1654 933,-1654 933,-1618 987,-1618 987,-1654"/>
<text text-anchor="middle" x="960" y="-1633.1" font-family="Courier,monospace" font-size="11.00">Media</text>
</a>
</g>
<!-- \\Valid -->
<g id="node16" class="node"><title>\\Valid</title>
<a xlink:href="classes.Valid.html" xlink:title="Valid" target="_parent">
<polygon fill="none" stroke="black" points="987,-844 933,-844 933,-808 987,-808 987,-844"/>
<text text-anchor="middle" x="960" y="-823.1" font-family="Courier,monospace" font-size="11.00">Valid</text>
</a>
</g>
<!-- \\Kohana_Valid -->
<g id="node64" class="node"><title>\\Kohana_Valid</title>
<ellipse fill="none" stroke="black" cx="666" cy="-234" rx="79.9031" ry="18.3848"/>
<text text-anchor="middle" x="666" y="-230.4" font-family="Times Roman,serif" font-size="14.00" fill="gray">\Kohana_Valid</text>
</g>
<!-- \\Valid&#45;&gt;\\Kohana_Valid -->
<g id="edge25" class="edge"><title>\\Valid&#45;&gt;\\Kohana_Valid</title>
<path fill="none" stroke="black" d="M932.949,-824.868C913.559,-822.537 888.413,-816.118 874,-799 718.622,-614.458 967.132,-436.868 802,-261 789.879,-248.091 773.494,-240.371 756.297,-235.925"/>
<polygon fill="none" stroke="black" points="756.623,-232.412 746.103,-233.67 755.112,-239.247 756.623,-232.412"/>
</g>
<!-- \\Helper_Model -->
<g id="node17" class="node"><title>\\Helper_Model</title>
<a xlink:href="classes.Helper.Model.html" xlink:title="Helper_Model" target="_parent">
<polygon fill="none" stroke="black" points="1009,-1546 911,-1546 911,-1510 1009,-1510 1009,-1546"/>
<text text-anchor="middle" x="960" y="-1525.1" font-family="Courier,monospace" font-size="11.00">Helper_Model</text>
</a>
</g>
<!-- \\Acl -->
<g id="node18" class="node"><title>\\Acl</title>
<a xlink:href="classes.Acl.html" xlink:title="Acl" target="_parent">
<polygon fill="none" stroke="black" points="987,-1384 933,-1384 933,-1348 987,-1348 987,-1384"/>
<text text-anchor="middle" x="960" y="-1363.1" font-family="Courier,monospace" font-size="11.00">Acl</text>
</a>
</g>
<!-- \\Base_Acl -->
<g id="node40" class="node"><title>\\Base_Acl</title>
<a xlink:href="classes.Base.Acl.html" xlink:title="Base_Acl" target="_parent">
<polygon fill="none" stroke="black" points="701,-1411 631,-1411 631,-1375 701,-1375 701,-1411"/>
<text text-anchor="middle" x="666" y="-1390.1" font-family="Courier,monospace" font-size="11.00">Base_Acl</text>
</a>
</g>
<!-- \\Acl&#45;&gt;\\Base_Acl -->
<g id="edge27" class="edge"><title>\\Acl&#45;&gt;\\Base_Acl</title>
<path fill="none" stroke="black" d="M932.868,-1368.49C882.476,-1373.12 773.934,-1383.09 711.921,-1388.78"/>
<polygon fill="none" stroke="black" points="711.284,-1385.33 701.646,-1389.73 711.924,-1392.3 711.284,-1385.33"/>
</g>
<!-- \\Gettext -->
<g id="node19" class="node"><title>\\Gettext</title>
<a xlink:href="classes.Gettext.html" xlink:title="Gettext" target="_parent">
<polygon fill="none" stroke="black" points="992,-1276 928,-1276 928,-1240 992,-1240 992,-1276"/>
<text text-anchor="middle" x="960" y="-1255.1" font-family="Courier,monospace" font-size="11.00">Gettext</text>
</a>
</g>
<!-- \\Base_Gettext -->
<g id="node41" class="node"><title>\\Base_Gettext</title>
<a xlink:href="classes.Base.Gettext.html" xlink:title="Base_Gettext" target="_parent">
<polygon fill="none" stroke="black" points="715,-1276 617,-1276 617,-1240 715,-1240 715,-1276"/>
<text text-anchor="middle" x="666" y="-1255.1" font-family="Courier,monospace" font-size="11.00">Base_Gettext</text>
</a>
</g>
<!-- \\Gettext&#45;&gt;\\Base_Gettext -->
<g id="edge29" class="edge"><title>\\Gettext&#45;&gt;\\Base_Gettext</title>
<path fill="none" stroke="black" d="M927.977,-1258C879.44,-1258 786.443,-1258 725.318,-1258"/>
<polygon fill="none" stroke="black" points="725.045,-1254.5 715.045,-1258 725.045,-1261.5 725.045,-1254.5"/>
</g>
<!-- \\Model_User -->
<g id="node20" class="node"><title>\\Model_User</title>
<a xlink:href="classes.Model.User.html" xlink:title="Model_User" target="_parent">
<polygon fill="none" stroke="black" points="1002,-1816 918,-1816 918,-1780 1002,-1780 1002,-1816"/>
<text text-anchor="middle" x="960" y="-1795.1" font-family="Courier,monospace" font-size="11.00">Model_User</text>
</a>
</g>
<!-- \\Model -->
<g id="node29" class="node"><title>\\Model</title>
<a xlink:href="classes.Model.html" xlink:title="Model" target="_parent">
<polygon fill="none" stroke="black" points="693,-1870 639,-1870 639,-1834 693,-1834 693,-1870"/>
<text text-anchor="middle" x="666" y="-1849.1" font-family="Courier,monospace" font-size="11.00">Model</text>
</a>
</g>
<!-- \\Model_User&#45;&gt;\\Model -->
<g id="edge31" class="edge"><title>\\Model_User&#45;&gt;\\Model</title>
<path fill="none" stroke="black" d="M917.877,-1805.74C860.3,-1816.31 757.932,-1835.11 703.103,-1845.19"/>
<polygon fill="none" stroke="black" points="702.323,-1841.77 693.12,-1847.02 703.587,-1848.65 702.323,-1841.77"/>
</g>
<!-- \\Model_Access_Rule -->
<g id="node21" class="node"><title>\\Model_Access_Rule</title>
<a xlink:href="classes.Model.Access.Rule.html" xlink:title="Model_Access_Rule" target="_parent">
<polygon fill="none" stroke="black" points="1025,-1924 895,-1924 895,-1888 1025,-1888 1025,-1924"/>
<text text-anchor="middle" x="960" y="-1903.1" font-family="Courier,monospace" font-size="11.00">Model_Access_Rule</text>
</a>
</g>
<!-- \\Model_Access_Rule&#45;&gt;\\Model -->
<g id="edge33" class="edge"><title>\\Model_Access_Rule&#45;&gt;\\Model</title>
<path fill="none" stroke="black" d="M894.387,-1893.95C835.419,-1883.12 750.939,-1867.6 702.979,-1858.79"/>
<polygon fill="none" stroke="black" points="703.504,-1855.33 693.037,-1856.97 702.24,-1862.21 703.504,-1855.33"/>
</g>
<!-- \\Model_Language -->
<g id="node22" class="node"><title>\\Model_Language</title>
<a xlink:href="classes.Model.Language.html" xlink:title="Model_Language" target="_parent">
<polygon fill="none" stroke="black" points="1015,-1870 905,-1870 905,-1834 1015,-1834 1015,-1870"/>
<text text-anchor="middle" x="960" y="-1849.1" font-family="Courier,monospace" font-size="11.00">Model_Language</text>
</a>
</g>
<!-- \\Model_Language&#45;&gt;\\Model -->
<g id="edge35" class="edge"><title>\\Model_Language&#45;&gt;\\Model</title>
<path fill="none" stroke="black" d="M904.355,-1852C845.452,-1852 754.126,-1852 703.323,-1852"/>
<polygon fill="none" stroke="black" points="703.123,-1848.5 693.123,-1852 703.123,-1855.5 703.123,-1848.5"/>
</g>
<!-- \\Text -->
<g id="node23" class="node"><title>\\Text</title>
<a xlink:href="classes.Text.html" xlink:title="Text" target="_parent">
<polygon fill="none" stroke="black" points="987,-790 933,-790 933,-754 987,-754 987,-790"/>
<text text-anchor="middle" x="960" y="-769.1" font-family="Courier,monospace" font-size="11.00">Text</text>
</a>
</g>
<!-- \\Kohana_Text -->
<g id="node71" class="node"><title>\\Kohana_Text</title>
<ellipse fill="none" stroke="black" cx="666" cy="-180" rx="77.0746" ry="18.3848"/>
<text text-anchor="middle" x="666" y="-176.4" font-family="Times Roman,serif" font-size="14.00" fill="gray">\Kohana_Text</text>
</g>
<!-- \\Text&#45;&gt;\\Kohana_Text -->
<g id="edge37" class="edge"><title>\\Text&#45;&gt;\\Kohana_Text</title>
<path fill="none" stroke="black" d="M932.949,-770.868C913.559,-768.537 888.413,-762.118 874,-745 718.622,-560.458 967.132,-382.868 802,-207 789.08,-193.24 771.317,-185.377 752.889,-181.088"/>
<polygon fill="none" stroke="black" points="753.403,-177.622 742.913,-179.108 752.04,-184.488 753.403,-177.622"/>
</g>
<!-- \\Date -->
<g id="node24" class="node"><title>\\Date</title>
<a xlink:href="classes.Date.html" xlink:title="Date" target="_parent">
<polygon fill="none" stroke="black" points="987,-1222 933,-1222 933,-1186 987,-1186 987,-1222"/>
<text text-anchor="middle" x="960" y="-1201.1" font-family="Courier,monospace" font-size="11.00">Date</text>
</a>
</g>
<!-- \\Base_Date -->
<g id="node42" class="node"><title>\\Base_Date</title>
<a xlink:href="classes.Base.Date.html" xlink:title="Base_Date" target="_parent">
<polygon fill="none" stroke="black" points="704,-845 628,-845 628,-809 704,-809 704,-845"/>
<text text-anchor="middle" x="666" y="-824.1" font-family="Courier,monospace" font-size="11.00">Base_Date</text>
</a>
</g>
<!-- \\Date&#45;&gt;\\Base_Date -->
<g id="edge39" class="edge"><title>\\Date&#45;&gt;\\Base_Date</title>
<path fill="none" stroke="black" d="M932.823,-1200.62C914.603,-1197.2 890.935,-1190.4 874,-1177 761.929,-1088.32 697.14,-921.403 674.853,-855.142"/>
<polygon fill="none" stroke="black" points="678.096,-853.8 671.641,-845.4 671.448,-855.993 678.096,-853.8"/>
</g>
<!-- \\Admin_Modules -->
<g id="node25" class="node"><title>\\Admin_Modules</title>
<a xlink:href="classes.Admin.Modules.html" xlink:title="Admin_Modules" target="_parent">
<polygon fill="none" stroke="black" points="718,-1681 614,-1681 614,-1645 718,-1645 718,-1681"/>
<text text-anchor="middle" x="666" y="-1660.1" font-family="Courier,monospace" font-size="11.00">Admin_Modules</text>
</a>
</g>
<!-- \\Admin_Modules&#45;&gt;\\Singleton -->
<g id="edge41" class="edge"><title>\\Admin_Modules&#45;&gt;\\Singleton</title>
<path fill="none" stroke="black" d="M613.921,-1654.49C588.42,-1649.87 557.386,-1643.54 530,-1636 494.705,-1626.28 455.822,-1612.41 426.218,-1601.16"/>
<polygon fill="none" stroke="black" points="427.143,-1597.76 416.553,-1597.45 424.638,-1604.3 427.143,-1597.76"/>
</g>
<!-- \\Auth -->
<g id="node26" class="node"><title>\\Auth</title>
<a xlink:href="classes.Auth.html" xlink:title="Auth" target="_parent">
<polygon fill="none" stroke="black" points="987,-1762 933,-1762 933,-1726 987,-1726 987,-1762"/>
<text text-anchor="middle" x="960" y="-1741.1" font-family="Courier,monospace" font-size="11.00">Auth</text>
</a>
</g>
<!-- \\Base_Auth -->
<g id="node43" class="node"><title>\\Base_Auth</title>
<a xlink:href="classes.Base.Auth.html" xlink:title="Base_Auth" target="_parent">
<polygon fill="none" stroke="black" points="704,-1627 628,-1627 628,-1591 704,-1591 704,-1627"/>
<text text-anchor="middle" x="666" y="-1606.1" font-family="Courier,monospace" font-size="11.00">Base_Auth</text>
</a>
</g>
<!-- \\Auth&#45;&gt;\\Base_Auth -->
<g id="edge43" class="edge"><title>\\Auth&#45;&gt;\\Base_Auth</title>
<path fill="none" stroke="black" d="M932.805,-1739.38C915.024,-1735.46 891.87,-1728.56 874,-1717 833.558,-1690.84 843.798,-1659.94 802,-1636 775.512,-1620.83 741.898,-1614.07 714.716,-1611.1"/>
<polygon fill="none" stroke="black" points="714.928,-1607.6 704.641,-1610.14 714.264,-1614.57 714.928,-1607.6"/>
</g>
<!-- \\HTTP_Exception -->
<g id="node27" class="node"><title>\\HTTP_Exception</title>
<a xlink:href="classes.HTTP.Exception.html" xlink:title="HTTP_Exception" target="_parent">
<polygon fill="none" stroke="black" points="1015,-736 905,-736 905,-700 1015,-700 1015,-736"/>
<text text-anchor="middle" x="960" y="-715.1" font-family="Courier,monospace" font-size="11.00">HTTP_Exception</text>
</a>
</g>
<!-- \\Kohana_HTTP_Exception -->
<g id="node76" class="node"><title>\\Kohana_HTTP_Exception</title>
<ellipse fill="none" stroke="black" cx="666" cy="-126" rx="135.765" ry="18.3848"/>
<text text-anchor="middle" x="666" y="-122.4" font-family="Times Roman,serif" font-size="14.00" fill="gray">\Kohana_HTTP_Exception</text>
</g>
<!-- \\HTTP_Exception&#45;&gt;\\Kohana_HTTP_Exception -->
<g id="edge45" class="edge"><title>\\HTTP_Exception&#45;&gt;\\Kohana_HTTP_Exception</title>
<path fill="none" stroke="black" d="M904.489,-710.535C892.917,-706.491 881.862,-700.337 874,-691 718.622,-506.458 967.132,-328.868 802,-153 797.778,-148.503 793.038,-144.636 787.927,-141.318"/>
<polygon fill="none" stroke="black" points="789.422,-138.142 779,-136.237 785.96,-144.225 789.422,-138.142"/>
</g>
<!-- \\Language -->
<g id="node28" class="node"><title>\\Language</title>
<a xlink:href="classes.Language.html" xlink:title="Language" target="_parent">
<polygon fill="none" stroke="black" points="995,-1330 925,-1330 925,-1294 995,-1294 995,-1330"/>
<text text-anchor="middle" x="960" y="-1309.1" font-family="Courier,monospace" font-size="11.00">Language</text>
</a>
</g>
<!-- \\Base_Language -->
<g id="node44" class="node"><title>\\Base_Language</title>
<a xlink:href="classes.Base.Language.html" xlink:title="Base_Language" target="_parent">
<polygon fill="none" stroke="black" points="718,-1330 614,-1330 614,-1294 718,-1294 718,-1330"/>
<text text-anchor="middle" x="666" y="-1309.1" font-family="Courier,monospace" font-size="11.00">Base_Language</text>
</a>
</g>
<!-- \\Language&#45;&gt;\\Base_Language -->
<g id="edge47" class="edge"><title>\\Language&#45;&gt;\\Base_Language</title>
<path fill="none" stroke="black" d="M924.244,-1312C875.565,-1312 787.692,-1312 728.117,-1312"/>
<polygon fill="none" stroke="black" points="728.074,-1308.5 718.074,-1312 728.074,-1315.5 728.074,-1308.5"/>
</g>
<!-- \\Base_Model -->
<g id="node45" class="node"><title>\\Base_Model</title>
<a xlink:href="classes.Base.Model.html" xlink:title="Base_Model" target="_parent">
<polygon fill="none" stroke="black" points="420,-1870 336,-1870 336,-1834 420,-1834 420,-1870"/>
<text text-anchor="middle" x="378" y="-1849.1" font-family="Courier,monospace" font-size="11.00">Base_Model</text>
</a>
</g>
<!-- \\Model&#45;&gt;\\Base_Model -->
<g id="edge49" class="edge"><title>\\Model&#45;&gt;\\Base_Model</title>
<path fill="none" stroke="black" d="M638.906,-1852C591.253,-1852 491.682,-1852 430.262,-1852"/>
<polygon fill="none" stroke="black" points="430.003,-1848.5 420.003,-1852 430.003,-1855.5 430.003,-1848.5"/>
</g>
<!-- \\URL -->
<g id="node30" class="node"><title>\\URL</title>
<a xlink:href="classes.URL.html" xlink:title="URL" target="_parent">
<polygon fill="none" stroke="black" points="987,-682 933,-682 933,-646 987,-646 987,-682"/>
<text text-anchor="middle" x="960" y="-661.1" font-family="Courier,monospace" font-size="11.00">URL</text>
</a>
</g>
<!-- \\Kohana_URL -->
<g id="node80" class="node"><title>\\Kohana_URL</title>
<ellipse fill="none" stroke="black" cx="666" cy="-72" rx="75.8684" ry="18.3848"/>
<text text-anchor="middle" x="666" y="-68.4" font-family="Times Roman,serif" font-size="14.00" fill="gray">\Kohana_URL</text>
</g>
<!-- \\URL&#45;&gt;\\Kohana_URL -->
<g id="edge51" class="edge"><title>\\URL&#45;&gt;\\Kohana_URL</title>
<path fill="none" stroke="black" d="M932.949,-662.868C913.559,-660.537 888.413,-654.118 874,-637 718.622,-452.458 967.132,-274.868 802,-99 789.011,-85.1661 771.125,-77.2919 752.59,-73.0187"/>
<polygon fill="none" stroke="black" points="753.045,-69.5413 742.558,-71.05 751.697,-76.4103 753.045,-69.5413"/>
</g>
<!-- \\Tools -->
<g id="node31" class="node"><title>\\Tools</title>
<a xlink:href="classes.Tools.html" xlink:title="Tools" target="_parent">
<polygon fill="none" stroke="black" points="693,-1573 639,-1573 639,-1537 693,-1537 693,-1573"/>
<text text-anchor="middle" x="666" y="-1552.1" font-family="Courier,monospace" font-size="11.00">Tools</text>
</a>
</g>
<!-- \\Tools&#45;&gt;\\Singleton -->
<g id="edge53" class="edge"><title>\\Tools&#45;&gt;\\Singleton</title>
<path fill="none" stroke="black" d="M638.906,-1557.54C590.326,-1562.09 487.79,-1571.71 426.723,-1577.43"/>
<polygon fill="none" stroke="black" points="426.189,-1573.97 416.56,-1578.39 426.843,-1580.94 426.189,-1573.97"/>
</g>
<!-- \\Object -->
<g id="node32" class="node"><title>\\Object</title>
<a xlink:href="classes.Object.html" xlink:title="Object" target="_parent">
<polygon fill="none" stroke="black" points="988,-898 932,-898 932,-862 988,-862 988,-898"/>
<text text-anchor="middle" x="960" y="-877.1" font-family="Courier,monospace" font-size="11.00">Object</text>
</a>
</g>
<!-- \\Tools_Media -->
<g id="node33" class="node"><title>\\Tools_Media</title>
<a xlink:href="classes.Tools.Media.html" xlink:title="Tools_Media" target="_parent">
<polygon fill="none" stroke="black" points="1005,-1708 915,-1708 915,-1672 1005,-1672 1005,-1708"/>
<text text-anchor="middle" x="960" y="-1687.1" font-family="Courier,monospace" font-size="11.00">Tools_Media</text>
</a>
</g>
<!-- \\Tools_Media&#45;&gt;\\Tools -->
<g id="edge55" class="edge"><title>\\Tools_Media&#45;&gt;\\Tools</title>
<path fill="none" stroke="black" d="M914.221,-1680.58C900.595,-1676.51 886.088,-1670.82 874,-1663 833.558,-1636.84 843.798,-1605.94 802,-1582 771.582,-1564.58 731.765,-1558.24 703.084,-1556.01"/>
<polygon fill="none" stroke="black" points="703.264,-1552.52 693.059,-1555.37 702.813,-1559.5 703.264,-1552.52"/>
</g>
<!-- \\Tools_Coffeescript -->
<g id="node34" class="node"><title>\\Tools_Coffeescript</title>
<a xlink:href="classes.Tools.Coffeescript.html" xlink:title="Tools_Coffeescript" target="_parent">
<polygon fill="none" stroke="black" points="1029,-1600 891,-1600 891,-1564 1029,-1564 1029,-1600"/>
<text text-anchor="middle" x="960" y="-1579.1" font-family="Courier,monospace" font-size="11.00">Tools_Coffeescript</text>
</a>
</g>
<!-- \\Tools_Coffeescript&#45;&gt;\\Tools -->
<g id="edge57" class="edge"><title>\\Tools_Coffeescript&#45;&gt;\\Tools</title>
<path fill="none" stroke="black" d="M890.698,-1575.64C831.987,-1570.24 750.069,-1562.72 703.084,-1558.41"/>
<polygon fill="none" stroke="black" points="703.326,-1554.91 693.048,-1557.48 702.686,-1561.88 703.326,-1554.91"/>
</g>
<!-- \\Tools_Less -->
<g id="node35" class="node"><title>\\Tools_Less</title>
<a xlink:href="classes.Tools.Less.html" xlink:title="Tools_Less" target="_parent">
<polygon fill="none" stroke="black" points="1002,-1492 918,-1492 918,-1456 1002,-1456 1002,-1492"/>
<text text-anchor="middle" x="960" y="-1471.1" font-family="Courier,monospace" font-size="11.00">Tools_Less</text>
</a>
</g>
<!-- \\Tools_Less&#45;&gt;\\Tools -->
<g id="edge59" class="edge"><title>\\Tools_Less&#45;&gt;\\Tools</title>
<path fill="none" stroke="black" d="M917.858,-1486.73C903.85,-1491.09 888.205,-1496.11 874,-1501 841.685,-1512.12 834.87,-1518.64 802,-1528 769.051,-1537.38 730.704,-1544.68 703.145,-1549.31"/>
<polygon fill="none" stroke="black" points="702.445,-1545.87 693.145,-1550.95 703.58,-1552.78 702.445,-1545.87"/>
</g>
<!-- \\Tools_Language -->
<g id="node36" class="node"><title>\\Tools_Language</title>
<a xlink:href="classes.Tools.Language.html" xlink:title="Tools_Language" target="_parent">
<polygon fill="none" stroke="black" points="1015,-1438 905,-1438 905,-1402 1015,-1402 1015,-1438"/>
<text text-anchor="middle" x="960" y="-1417.1" font-family="Courier,monospace" font-size="11.00">Tools_Language</text>
</a>
</g>
<!-- \\Tools_Language&#45;&gt;\\Tools -->
<g id="edge61" class="edge"><title>\\Tools_Language&#45;&gt;\\Tools</title>
<path fill="none" stroke="black" d="M904.34,-1432.63C893.795,-1436.34 883.198,-1441.05 874,-1447 833.558,-1473.16 843.798,-1504.06 802,-1528 771.582,-1545.42 731.765,-1551.76 703.084,-1553.99"/>
<polygon fill="none" stroke="black" points="702.813,-1550.5 693.059,-1554.63 703.264,-1557.48 702.813,-1550.5"/>
</g>
<!-- \\Base_Media -->
<g id="node37" class="node"><title>\\Base_Media</title>
<a xlink:href="classes.Base.Media.html" xlink:title="Base_Media" target="_parent">
<polygon fill="none" stroke="black" points="708,-1735 624,-1735 624,-1699 708,-1699 708,-1735"/>
<text text-anchor="middle" x="666" y="-1714.1" font-family="Courier,monospace" font-size="11.00">Base_Media</text>
</a>
</g>
<!-- \\Base_Media&#45;&gt;\\Singleton -->
<g id="edge63" class="edge"><title>\\Base_Media&#45;&gt;\\Singleton</title>
<path fill="none" stroke="black" d="M623.88,-1713.26C596.301,-1709.72 559.955,-1702.91 530,-1690 481.901,-1669.27 433.888,-1631.61 405.063,-1606.69"/>
<polygon fill="none" stroke="black" points="407.286,-1603.99 397.458,-1600.03 402.672,-1609.25 407.286,-1603.99"/>
</g>
<!-- \\Base_Db_Validation -->
<g id="node38" class="node"><title>\\Base_Db_Validation</title>
<a xlink:href="classes.Base.Db.Validation.html" xlink:title="Base_Db_Validation" target="_parent">
<polygon fill="none" stroke="black" points="1029,-628 891,-628 891,-592 1029,-592 1029,-628"/>
<text text-anchor="middle" x="960" y="-607.1" font-family="Courier,monospace" font-size="11.00">Base_Db_Validation</text>
</a>
</g>
<!-- \\Base_Db_Sanitize -->
<g id="node39" class="node"><title>\\Base_Db_Sanitize</title>
<a xlink:href="classes.Base.Db.Sanitize.html" xlink:title="Base_Db_Sanitize" target="_parent">
<polygon fill="none" stroke="black" points="1022,-574 898,-574 898,-538 1022,-538 1022,-574"/>
<text text-anchor="middle" x="960" y="-553.1" font-family="Courier,monospace" font-size="11.00">Base_Db_Sanitize</text>
</a>
</g>
<!-- \\Base_Acl&#45;&gt;\\Singleton -->
<g id="edge65" class="edge"><title>\\Base_Acl&#45;&gt;\\Singleton</title>
<path fill="none" stroke="black" d="M630.341,-1410C601.581,-1424.68 560.964,-1447.63 530,-1474 492.05,-1506.32 499.939,-1533.05 458,-1560 448.536,-1566.08 437.401,-1570.5 426.496,-1573.7"/>
<polygon fill="none" stroke="black" points="425.375,-1570.38 416.6,-1576.32 427.162,-1577.15 425.375,-1570.38"/>
</g>
<!-- \\Kohana_I18n -->
<g id="node89" class="node"><title>\\Kohana_I18n</title>
<ellipse fill="none" stroke="black" cx="378" cy="-396" rx="77.9889" ry="18.3848"/>
<text text-anchor="middle" x="378" y="-392.4" font-family="Times Roman,serif" font-size="14.00" fill="gray">\Kohana_I18n</text>
</g>
<!-- \\Base_Gettext&#45;&gt;\\Kohana_I18n -->
<g id="edge67" class="edge"><title>\\Base_Gettext&#45;&gt;\\Kohana_I18n</title>
<path fill="none" stroke="black" d="M658.69,-1239.79C636.307,-1183.39 567.932,-1006.24 530,-854 482.516,-663.424 589.42,-563.954 458,-418 455.967,-415.742 453.726,-413.707 451.324,-411.873"/>
<polygon fill="none" stroke="black" points="452.94,-408.754 442.614,-406.382 449.207,-414.676 452.94,-408.754"/>
</g>
<!-- \\Kohana_Date -->
<g id="node91" class="node"><title>\\Kohana_Date</title>
<ellipse fill="none" stroke="black" cx="378" cy="-342" rx="79.9031" ry="18.3848"/>
<text text-anchor="middle" x="378" y="-338.4" font-family="Times Roman,serif" font-size="14.00" fill="gray">\Kohana_Date</text>
</g>
<!-- \\Base_Date&#45;&gt;\\Kohana_Date -->
<g id="edge69" class="edge"><title>\\Base_Date&#45;&gt;\\Kohana_Date</title>
<path fill="none" stroke="black" d="M627.194,-831.9C596.609,-833.438 555.072,-829.99 530,-805 390.895,-666.351 585.198,-518.648 458,-369 454.787,-365.22 451.025,-361.967 446.916,-359.169"/>
<polygon fill="none" stroke="black" points="448.466,-356.022 438.058,-354.04 444.958,-362.08 448.466,-356.022"/>
</g>
<!-- \\Base_Auth&#45;&gt;\\Singleton -->
<g id="edge71" class="edge"><title>\\Base_Auth&#45;&gt;\\Singleton</title>
<path fill="none" stroke="black" d="M627.458,-1605.39C575.656,-1600.53 483.549,-1591.9 426.918,-1586.59"/>
<polygon fill="none" stroke="black" points="427.057,-1583.08 416.774,-1585.64 426.403,-1590.05 427.057,-1583.08"/>
</g>
<!-- \\Kohana_Model -->
<g id="node94" class="node"><title>\\Kohana_Model</title>
<ellipse fill="none" stroke="black" cx="113" cy="-1852" rx="84.8528" ry="18.3848"/>
<text text-anchor="middle" x="113" y="-1848.4" font-family="Times Roman,serif" font-size="14.00" fill="gray">\Kohana_Model</text>
</g>
<!-- \\Base_Model&#45;&gt;\\Kohana_Model -->
<g id="edge73" class="edge"><title>\\Base_Model&#45;&gt;\\Kohana_Model</title>
<path fill="none" stroke="black" d="M335.717,-1852C301.486,-1852 251.957,-1852 208.294,-1852"/>
<polygon fill="none" stroke="black" points="208.208,-1848.5 198.208,-1852 208.207,-1855.5 208.208,-1848.5"/>
</g>
<!-- \\Error -->
<g id="node46" class="node"><title>\\Error</title>
<a xlink:href="classes.Error.html" xlink:title="Error" target="_parent">
<polygon fill="none" stroke="black" points="987,-520 933,-520 933,-484 987,-484 987,-520"/>
<text text-anchor="middle" x="960" y="-499.1" font-family="Courier,monospace" font-size="11.00">Error</text>
</a>
</g>
<!-- \\Kohana_Exception -->
<g id="node96" class="node"><title>\\Kohana_Exception</title>
<ellipse fill="none" stroke="black" cx="666" cy="-18" rx="103.945" ry="18.3848"/>
<text text-anchor="middle" x="666" y="-14.4" font-family="Times Roman,serif" font-size="14.00" fill="gray">\Kohana_Exception</text>
</g>
<!-- \\Error&#45;&gt;\\Kohana_Exception -->
<g id="edge75" class="edge"><title>\\Error&#45;&gt;\\Kohana_Exception</title>
<path fill="none" stroke="black" d="M932.706,-500.677C913.454,-498.235 888.59,-491.761 874,-475 746.778,-328.843 936.941,-184.062 802,-45 794.363,-37.1302 785.138,-31.2063 775.131,-26.7849"/>
<polygon fill="none" stroke="black" points="776.334,-23.4971 765.745,-23.1341 773.796,-30.021 776.334,-23.4971"/>
</g>
<!-- \\Collection -->
<g id="node47" class="node"><title>\\Collection</title>
<a xlink:href="classes.Collection.html" xlink:title="Collection" target="_parent">
<polygon fill="none" stroke="black" points="1002,-466 918,-466 918,-430 1002,-430 1002,-466"/>
<text text-anchor="middle" x="960" y="-445.1" font-family="Courier,monospace" font-size="11.00">Collection</text>
</a>
</g>
</g>
</svg>
