<?xml version="1.0" encoding="UTF-8" standalone="no"?>
<!DOCTYPE svg PUBLIC "-//W3C//DTD SVG 1.1//EN"
 "http://www.w3.org/Graphics/SVG/1.1/DTD/svg11.dtd">
<!-- Generated by graphviz version 2.26.3 (20100126.1600)
 -->
<!-- Title: G Pages: 1 -->
<svg width="900pt" height="782pt"
 viewBox="0.00 0.00 900.00 782.00" xmlns="http://www.w3.org/2000/svg" xmlns:xlink="http://www.w3.org/1999/xlink">
<g id="graph1" class="graph" transform="scale(1 1) rotate(0) translate(4 778)">
<title>G</title>
<polygon fill="white" stroke="white" points="-4,5 -4,-778 897,-778 897,5 -4,5"/>
<g id="graph2" class="cluster"><title>cluster_global</title>
<polyline fill="none" stroke="gray" points="317,-98 872,-98 "/>
<path fill="none" stroke="gray" d="M872,-98C878,-98 884,-104 884,-110"/>
<polyline fill="none" stroke="gray" points="884,-110 884,-754 "/>
<path fill="none" stroke="gray" d="M884,-754C884,-760 878,-766 872,-766"/>
<polyline fill="none" stroke="gray" points="872,-766 317,-766 "/>
<path fill="none" stroke="gray" d="M317,-766C311,-766 305,-760 305,-754"/>
<polyline fill="none" stroke="gray" points="305,-754 305,-110 "/>
<path fill="none" stroke="gray" d="M305,-110C305,-104 311,-98 317,-98"/>
<text text-anchor="middle" x="594.5" y="-752.1" font-family="Times Roman,serif" font-size="11.00" fill="gray">global</text>
</g>
<!-- \\Singleton -->
<g id="node2" class="node"><title>\\Singleton</title>
<a xlink:href="classes.singleton.html" xlink:title="Singleton" target="_parent">
<polygon fill="none" stroke="black" points="393,-493 317,-493 317,-457 393,-457 393,-493"/>
<text text-anchor="middle" x="355" y="-472.1" font-family="Courier,monospace" font-size="11.00">Singleton</text>
</a>
</g>
<!-- \\Media -->
<g id="node3" class="node"><title>\\Media</title>
<a xlink:href="classes.media.html" xlink:title="Media" target="_parent">
<polygon fill="none" stroke="black" points="834,-736 780,-736 780,-700 834,-700 834,-736"/>
<text text-anchor="middle" x="807" y="-715.1" font-family="Courier,monospace" font-size="11.00">Media</text>
</a>
</g>
<!-- \\Model_Access_Rule -->
<g id="node4" class="node"><title>\\Model_Access_Rule</title>
<a xlink:href="classes.model.access.rule.html" xlink:title="Model_Access_Rule" target="_parent">
<polygon fill="none" stroke="black" points="872,-682 742,-682 742,-646 872,-646 872,-682"/>
<text text-anchor="middle" x="807" y="-661.1" font-family="Courier,monospace" font-size="11.00">Model_Access_Rule</text>
</a>
</g>
<!-- \\Model -->
<g id="node19" class="node"><title>\\Model</title>
<a xlink:href="classes.model.html" xlink:title="Model" target="_parent">
<polygon fill="none" stroke="black" points="630,-655 576,-655 576,-619 630,-619 630,-655"/>
<text text-anchor="middle" x="603" y="-634.1" font-family="Courier,monospace" font-size="11.00">Model</text>
</a>
</g>
<!-- \\Model_Access_Rule&#45;&gt;\\Model -->
<g id="edge3" class="edge"><title>\\Model_Access_Rule&#45;&gt;\\Model</title>
<path fill="none" stroke="black" d="M741.33,-655.308C707.97,-650.893 668.646,-645.689 640.47,-641.959"/>
<polygon fill="none" stroke="black" points="640.626,-638.449 630.253,-640.607 639.707,-645.389 640.626,-638.449"/>
</g>
<!-- \\Model_User -->
<g id="node5" class="node"><title>\\Model_User</title>
<a xlink:href="classes.model.user.html" xlink:title="Model_User" target="_parent">
<polygon fill="none" stroke="black" points="849,-628 765,-628 765,-592 849,-592 849,-628"/>
<text text-anchor="middle" x="807" y="-607.1" font-family="Courier,monospace" font-size="11.00">Model_User</text>
</a>
</g>
<!-- \\Model_User&#45;&gt;\\Model -->
<g id="edge5" class="edge"><title>\\Model_User&#45;&gt;\\Model</title>
<path fill="none" stroke="black" d="M764.731,-615.594C728.137,-620.438 675.705,-627.377 640.56,-632.029"/>
<polygon fill="none" stroke="black" points="639.699,-628.612 630.245,-633.394 640.617,-635.552 639.699,-628.612"/>
</g>
<!-- \\Auth -->
<g id="node6" class="node"><title>\\Auth</title>
<a xlink:href="classes.auth.html" xlink:title="Auth" target="_parent">
<polygon fill="none" stroke="black" points="834,-574 780,-574 780,-538 834,-538 834,-574"/>
<text text-anchor="middle" x="807" y="-553.1" font-family="Courier,monospace" font-size="11.00">Auth</text>
</a>
</g>
<!-- \\Base_Auth -->
<g id="node10" class="node"><title>\\Base_Auth</title>
<a xlink:href="classes.base.auth.html" xlink:title="Base_Auth" target="_parent">
<polygon fill="none" stroke="black" points="641,-574 565,-574 565,-538 641,-538 641,-574"/>
<text text-anchor="middle" x="603" y="-553.1" font-family="Courier,monospace" font-size="11.00">Base_Auth</text>
</a>
</g>
<!-- \\Auth&#45;&gt;\\Base_Auth -->
<g id="edge7" class="edge"><title>\\Auth&#45;&gt;\\Base_Auth</title>
<path fill="none" stroke="black" d="M779.91,-556C747.307,-556 691.947,-556 651.825,-556"/>
<polygon fill="none" stroke="black" points="651.719,-552.5 641.719,-556 651.719,-559.5 651.719,-552.5"/>
</g>
<!-- \\Controller_Users -->
<g id="node7" class="node"><title>\\Controller_Users</title>
<a xlink:href="classes.controller.users.html" xlink:title="Controller_Users" target="_parent">
<polygon fill="none" stroke="black" points="869,-520 745,-520 745,-484 869,-484 869,-520"/>
<text text-anchor="middle" x="807" y="-499.1" font-family="Courier,monospace" font-size="11.00">Controller_Users</text>
</a>
</g>
<!-- \\Controller_Core -->
<g id="node8" class="node"><title>\\Controller_Core</title>
<a xlink:href="classes.controller.core.html" xlink:title="Controller_Core" target="_parent">
<polygon fill="none" stroke="black" points="662,-358 544,-358 544,-322 662,-322 662,-358"/>
<text text-anchor="middle" x="603" y="-337.1" font-family="Courier,monospace" font-size="11.00">Controller_Core</text>
</a>
</g>
<!-- \\Controller_Users&#45;&gt;\\Controller_Core -->
<g id="edge9" class="edge"><title>\\Controller_Users&#45;&gt;\\Controller_Core</title>
<path fill="none" stroke="black" d="M751.435,-483.855C746.67,-481.248 742.108,-478.308 738,-475 693.066,-438.82 710.351,-403.892 666,-367 664.648,-365.875 663.242,-364.79 661.792,-363.744"/>
<polygon fill="none" stroke="black" points="663.404,-360.62 653.095,-358.175 659.629,-366.515 663.404,-360.62"/>
</g>
<!-- \\Controller_Template -->
<g id="node28" class="node"><title>\\Controller_Template</title>
<ellipse fill="none" stroke="black" cx="355" cy="-72" rx="113.137" ry="18.3848"/>
<text text-anchor="middle" x="355" y="-68.4" font-family="Times Roman,serif" font-size="14.00" fill="gray">\Controller_Template</text>
</g>
<!-- \\Controller_Core&#45;&gt;\\Controller_Template -->
<g id="edge11" class="edge"><title>\\Controller_Core&#45;&gt;\\Controller_Template</title>
<path fill="none" stroke="black" d="M591.997,-321.997C579.179,-300.871 557.523,-264.695 540,-233 506.338,-172.112 523.698,-135.693 468,-94 464.346,-91.2649 460.445,-88.8428 456.37,-86.6994"/>
<polygon fill="none" stroke="black" points="457.743,-83.478 447.199,-82.4395 454.794,-89.8265 457.743,-83.478"/>
</g>
<!-- \\Base_Media -->
<g id="node9" class="node"><title>\\Base_Media</title>
<a xlink:href="classes.base.media.html" xlink:title="Base_Media" target="_parent">
<polygon fill="none" stroke="black" points="645,-520 561,-520 561,-484 645,-484 645,-520"/>
<text text-anchor="middle" x="603" y="-499.1" font-family="Courier,monospace" font-size="11.00">Base_Media</text>
</a>
</g>
<!-- \\Base_Media&#45;&gt;\\Singleton -->
<g id="edge13" class="edge"><title>\\Base_Media&#45;&gt;\\Singleton</title>
<path fill="none" stroke="black" d="M560.93,-497.42C517.376,-492.678 449.413,-485.279 403.595,-480.291"/>
<polygon fill="none" stroke="black" points="403.919,-476.805 393.599,-479.202 403.161,-483.764 403.919,-476.805"/>
</g>
<!-- \\Base_Auth&#45;&gt;\\Singleton -->
<g id="edge15" class="edge"><title>\\Base_Auth&#45;&gt;\\Singleton</title>
<path fill="none" stroke="black" d="M564.25,-543.344C520.88,-529.179 450.544,-506.206 403.543,-490.855"/>
<polygon fill="none" stroke="black" points="404.479,-487.479 393.886,-487.701 402.305,-494.133 404.479,-487.479"/>
</g>
<!-- \\Base_Db_Validation -->
<g id="node11" class="node"><title>\\Base_Db_Validation</title>
<a xlink:href="classes.base.db.validation.html" xlink:title="Base_Db_Validation" target="_parent">
<polygon fill="none" stroke="black" points="876,-466 738,-466 738,-430 876,-430 876,-466"/>
<text text-anchor="middle" x="807" y="-445.1" font-family="Courier,monospace" font-size="11.00">Base_Db_Validation</text>
</a>
</g>
<!-- \\Base_Db_Sanitize -->
<g id="node12" class="node"><title>\\Base_Db_Sanitize</title>
<a xlink:href="classes.base.db.sanitize.html" xlink:title="Base_Db_Sanitize" target="_parent">
<polygon fill="none" stroke="black" points="869,-412 745,-412 745,-376 869,-376 869,-412"/>
<text text-anchor="middle" x="807" y="-391.1" font-family="Courier,monospace" font-size="11.00">Base_Db_Sanitize</text>
</a>
</g>
<!-- \\Base_ACL -->
<g id="node13" class="node"><title>\\Base_ACL</title>
<a xlink:href="classes.base.acl.html" xlink:title="Base_ACL" target="_parent">
<polygon fill="none" stroke="black" points="638,-466 568,-466 568,-430 638,-430 638,-466"/>
<text text-anchor="middle" x="603" y="-445.1" font-family="Courier,monospace" font-size="11.00">Base_ACL</text>
</a>
</g>
<!-- \\Base_ACL&#45;&gt;\\Singleton -->
<g id="edge17" class="edge"><title>\\Base_ACL&#45;&gt;\\Singleton</title>
<path fill="none" stroke="black" d="M567.468,-451.868C524.544,-456.542 452.109,-464.428 403.926,-469.673"/>
<polygon fill="none" stroke="black" points="403.295,-466.221 393.733,-470.783 404.053,-473.18 403.295,-466.221"/>
</g>
<!-- \\Base_Model -->
<g id="node14" class="node"><title>\\Base_Model</title>
<a xlink:href="classes.base.model.html" xlink:title="Base_Model" target="_parent">
<polygon fill="none" stroke="black" points="397,-655 313,-655 313,-619 397,-619 397,-655"/>
<text text-anchor="middle" x="355" y="-634.1" font-family="Courier,monospace" font-size="11.00">Base_Model</text>
</a>
</g>
<!-- \\Kohana_Model -->
<g id="node33" class="node"><title>\\Kohana_Model</title>
<ellipse fill="none" stroke="black" cx="85" cy="-637" rx="84.8528" ry="18.3848"/>
<text text-anchor="middle" x="85" y="-633.4" font-family="Times Roman,serif" font-size="14.00" fill="gray">\Kohana_Model</text>
</g>
<!-- \\Base_Model&#45;&gt;\\Kohana_Model -->
<g id="edge19" class="edge"><title>\\Base_Model&#45;&gt;\\Kohana_Model</title>
<path fill="none" stroke="black" d="M312.812,-637C277.444,-637 225.604,-637 180.307,-637"/>
<polygon fill="none" stroke="black" points="180.152,-633.5 170.152,-637 180.152,-640.5 180.152,-633.5"/>
</g>
<!-- \\Base_Date -->
<g id="node15" class="node"><title>\\Base_Date</title>
<a xlink:href="classes.base.date.html" xlink:title="Base_Date" target="_parent">
<polygon fill="none" stroke="black" points="641,-224 565,-224 565,-188 641,-188 641,-224"/>
<text text-anchor="middle" x="603" y="-203.1" font-family="Courier,monospace" font-size="11.00">Base_Date</text>
</a>
</g>
<!-- \\Kohana_Date -->
<g id="node35" class="node"><title>\\Kohana_Date</title>
<ellipse fill="none" stroke="black" cx="355" cy="-18" rx="79.9031" ry="18.3848"/>
<text text-anchor="middle" x="355" y="-14.4" font-family="Times Roman,serif" font-size="14.00" fill="gray">\Kohana_Date</text>
</g>
<!-- \\Base_Date&#45;&gt;\\Kohana_Date -->
<g id="edge21" class="edge"><title>\\Base_Date&#45;&gt;\\Kohana_Date</title>
<path fill="none" stroke="black" d="M564.212,-197.592C555.561,-194.387 546.914,-189.996 540,-184 487.439,-138.417 522.804,-87.86 468,-45 458.968,-37.9363 448.375,-32.6784 437.36,-28.7725"/>
<polygon fill="none" stroke="black" points="438.19,-25.364 427.6,-25.6767 436.073,-32.0364 438.19,-25.364"/>
</g>
<!-- \\Error -->
<g id="node16" class="node"><title>\\Error</title>
<a xlink:href="classes.error.html" xlink:title="Error" target="_parent">
<polygon fill="none" stroke="black" points="834,-358 780,-358 780,-322 834,-322 834,-358"/>
<text text-anchor="middle" x="807" y="-337.1" font-family="Courier,monospace" font-size="11.00">Error</text>
</a>
</g>
<!-- \\Pretty_Form -->
<g id="node17" class="node"><title>\\Pretty_Form</title>
<a xlink:href="classes.pretty.form.html" xlink:title="Pretty_Form" target="_parent">
<polygon fill="none" stroke="black" points="648,-412 558,-412 558,-376 648,-376 648,-412"/>
<text text-anchor="middle" x="603" y="-391.1" font-family="Courier,monospace" font-size="11.00">Pretty_Form</text>
</a>
</g>
<!-- \\Pretty_Form&#45;&gt;\\Singleton -->
<g id="edge23" class="edge"><title>\\Pretty_Form&#45;&gt;\\Singleton</title>
<path fill="none" stroke="black" d="M560.606,-412.077C553.712,-415.043 546.653,-418.096 540,-421 507.906,-435.009 501.399,-442.476 468,-453 447.29,-459.526 423.806,-464.475 403.632,-468.011"/>
<polygon fill="none" stroke="black" points="402.999,-464.568 393.72,-469.682 404.163,-471.47 402.999,-464.568"/>
</g>
<!-- \\ACL -->
<g id="node18" class="node"><title>\\ACL</title>
<a xlink:href="classes.acl.html" xlink:title="ACL" target="_parent">
<polygon fill="none" stroke="black" points="834,-250 780,-250 780,-214 834,-214 834,-250"/>
<text text-anchor="middle" x="807" y="-229.1" font-family="Courier,monospace" font-size="11.00">ACL</text>
</a>
</g>
<!-- \\Base_Acl -->
<g id="node38" class="node"><title>\\Base_Acl</title>
<ellipse fill="none" stroke="black" cx="603" cy="-72" rx="57.9828" ry="18.3848"/>
<text text-anchor="middle" x="603" y="-68.4" font-family="Times Roman,serif" font-size="14.00" fill="gray">\Base_Acl</text>
</g>
<!-- \\ACL&#45;&gt;\\Base_Acl -->
<g id="edge25" class="edge"><title>\\ACL&#45;&gt;\\Base_Acl</title>
<path fill="none" stroke="black" d="M779.736,-225.601C766.136,-221.408 750.062,-214.838 738,-205 692.431,-167.834 712.249,-130.316 666,-94 663.228,-91.8234 660.225,-89.8534 657.085,-88.0716"/>
<polygon fill="none" stroke="black" points="658.466,-84.8492 647.953,-83.5336 655.351,-91.118 658.466,-84.8492"/>
</g>
<!-- \\Model&#45;&gt;\\Base_Model -->
<g id="edge27" class="edge"><title>\\Model&#45;&gt;\\Base_Model</title>
<path fill="none" stroke="black" d="M575.988,-637C535.703,-637 459.109,-637 407.543,-637"/>
<polygon fill="none" stroke="black" points="407.262,-633.5 397.262,-637 407.262,-640.5 407.262,-633.5"/>
</g>
<!-- \\Date -->
<g id="node20" class="node"><title>\\Date</title>
<a xlink:href="classes.date.html" xlink:title="Date" target="_parent">
<polygon fill="none" stroke="black" points="834,-304 780,-304 780,-268 834,-268 834,-304"/>
<text text-anchor="middle" x="807" y="-283.1" font-family="Courier,monospace" font-size="11.00">Date</text>
</a>
</g>
<!-- \\Date&#45;&gt;\\Base_Date -->
<g id="edge29" class="edge"><title>\\Date&#45;&gt;\\Base_Date</title>
<path fill="none" stroke="black" d="M779.797,-275.363C767.096,-270.395 751.773,-264.398 738,-259 709.21,-247.716 676.974,-235.061 651.224,-224.947"/>
<polygon fill="none" stroke="black" points="652.281,-221.602 641.693,-221.204 649.721,-228.118 652.281,-221.602"/>
</g>
<!-- \\JSMin -->
<g id="node21" class="node"><title>\\JSMin</title>
<a xlink:href="vendor.jsmin-php.jsmin.html" xlink:title="JSMin" target="_parent">
<polygon fill="none" stroke="black" points="834,-196 780,-196 780,-160 834,-160 834,-196"/>
<text text-anchor="middle" x="807" y="-175.1" font-family="Courier,monospace" font-size="11.00">JSMin</text>
</a>
</g>
<!-- \\JSMinException -->
<g id="node22" class="node"><title>\\JSMinException</title>
<a xlink:href="vendor.jsmin-php.jsmin.html" xlink:title="JSMinException" target="_parent">
<polygon fill="none" stroke="black" points="862,-142 752,-142 752,-106 862,-106 862,-142"/>
<text text-anchor="middle" x="807" y="-121.1" font-family="Courier,monospace" font-size="11.00">JSMinException</text>
</a>
</g>
<!-- \\Exception -->
<g id="node42" class="node"><title>\\Exception</title>
<ellipse fill="none" stroke="black" cx="603" cy="-18" rx="62.9325" ry="18.3848"/>
<text text-anchor="middle" x="603" y="-14.4" font-family="Times Roman,serif" font-size="14.00" fill="gray">\Exception</text>
</g>
<!-- \\JSMinException&#45;&gt;\\Exception -->
<g id="edge31" class="edge"><title>\\JSMinException&#45;&gt;\\Exception</title>
<path fill="none" stroke="black" d="M776.966,-105.95C748.754,-89.2893 705.14,-64.2845 666,-45 660.396,-42.2389 654.441,-39.4747 648.514,-36.8248"/>
<polygon fill="none" stroke="black" points="649.843,-33.5857 639.28,-32.7717 647.03,-39.9956 649.843,-33.5857"/>
</g>
</g>
</svg>
