<?xml version="1.0" encoding="UTF-8" standalone="no"?>
<!DOCTYPE svg PUBLIC "-//W3C//DTD SVG 1.1//EN"
 "http://www.w3.org/Graphics/SVG/1.1/DTD/svg11.dtd">
<!-- Generated by graphviz version 2.26.3 (20100126.1600)
 -->
<!-- Title: G Pages: 1 -->
<svg width="948pt" height="1592pt"
 viewBox="0.00 0.00 948.00 1592.00" xmlns="http://www.w3.org/2000/svg" xmlns:xlink="http://www.w3.org/1999/xlink">
<g id="graph1" class="graph" transform="scale(1 1) rotate(0) translate(4 1588)">
<title>G</title>
<polygon fill="white" stroke="white" points="-4,5 -4,-1588 945,-1588 945,5 -4,5"/>
<g id="graph2" class="cluster"><title>cluster_global</title>
<polyline fill="none" stroke="gray" points="317,-206 920,-206 "/>
<path fill="none" stroke="gray" d="M920,-206C926,-206 932,-212 932,-218"/>
<polyline fill="none" stroke="gray" points="932,-218 932,-1564 "/>
<path fill="none" stroke="gray" d="M932,-1564C932,-1570 926,-1576 920,-1576"/>
<polyline fill="none" stroke="gray" points="920,-1576 317,-1576 "/>
<path fill="none" stroke="gray" d="M317,-1576C311,-1576 305,-1570 305,-1564"/>
<polyline fill="none" stroke="gray" points="305,-1564 305,-218 "/>
<path fill="none" stroke="gray" d="M305,-218C305,-212 311,-206 317,-206"/>
<text text-anchor="middle" x="618.5" y="-1562.1" font-family="Times Roman,serif" font-size="11.00" fill="gray">global</text>
</g>
<!-- \\ACL -->
<g id="node2" class="node"><title>\\ACL</title>
<a xlink:href="classes.acl.html" xlink:title="ACL" target="_parent">
<polygon fill="none" stroke="black" points="875,-1546 821,-1546 821,-1510 875,-1510 875,-1546"/>
<text text-anchor="middle" x="848" y="-1525.1" font-family="Courier,monospace" font-size="11.00">ACL</text>
</a>
</g>
<!-- \\Base_ACL -->
<g id="node15" class="node"><title>\\Base_ACL</title>
<a xlink:href="classes.base.acl.html" xlink:title="Base_ACL" target="_parent">
<polygon fill="none" stroke="black" points="655,-1519 585,-1519 585,-1483 655,-1483 655,-1519"/>
<text text-anchor="middle" x="620" y="-1498.1" font-family="Courier,monospace" font-size="11.00">Base_ACL</text>
</a>
</g>
<!-- \\ACL&#45;&gt;\\Base_ACL -->
<g id="edge3" class="edge"><title>\\ACL&#45;&gt;\\Base_ACL</title>
<path fill="none" stroke="black" d="M820.95,-1524.8C782.677,-1520.26 712.212,-1511.92 665.727,-1506.41"/>
<polygon fill="none" stroke="black" points="665.957,-1502.92 655.615,-1505.22 665.134,-1509.87 665.957,-1502.92"/>
</g>
<!-- \\Tools_Less -->
<g id="node3" class="node"><title>\\Tools_Less</title>
<a xlink:href="classes.tools.less.html" xlink:title="Tools_Less" target="_parent">
<polygon fill="none" stroke="black" points="890,-1438 806,-1438 806,-1402 890,-1402 890,-1438"/>
<text text-anchor="middle" x="848" y="-1417.1" font-family="Courier,monospace" font-size="11.00">Tools_Less</text>
</a>
</g>
<!-- \\Tools -->
<g id="node31" class="node"><title>\\Tools</title>
<a xlink:href="classes.tools.html" xlink:title="Tools" target="_parent">
<polygon fill="none" stroke="black" points="647,-1438 593,-1438 593,-1402 647,-1402 647,-1438"/>
<text text-anchor="middle" x="620" y="-1417.1" font-family="Courier,monospace" font-size="11.00">Tools</text>
</a>
</g>
<!-- \\Tools_Less&#45;&gt;\\Tools -->
<g id="edge5" class="edge"><title>\\Tools_Less&#45;&gt;\\Tools</title>
<path fill="none" stroke="black" d="M805.916,-1420C763.304,-1420 698.033,-1420 657.245,-1420"/>
<polygon fill="none" stroke="black" points="657.18,-1416.5 647.18,-1420 657.18,-1423.5 657.18,-1416.5"/>
</g>
<!-- \\Tools_Media -->
<g id="node4" class="node"><title>\\Tools_Media</title>
<a xlink:href="classes.tools.media.html" xlink:title="Tools_Media" target="_parent">
<polygon fill="none" stroke="black" points="893,-1384 803,-1384 803,-1348 893,-1348 893,-1384"/>
<text text-anchor="middle" x="848" y="-1363.1" font-family="Courier,monospace" font-size="11.00">Tools_Media</text>
</a>
</g>
<!-- \\Tools_Media&#45;&gt;\\Tools -->
<g id="edge7" class="edge"><title>\\Tools_Media&#45;&gt;\\Tools</title>
<path fill="none" stroke="black" d="M802.409,-1376.8C759.73,-1386.91 696.754,-1401.82 657.078,-1411.22"/>
<polygon fill="none" stroke="black" points="656.199,-1407.83 647.275,-1413.54 657.812,-1414.64 656.199,-1407.83"/>
</g>
<!-- \\Tools_Language -->
<g id="node5" class="node"><title>\\Tools_Language</title>
<a xlink:href="classes.tools.language.html" xlink:title="Tools_Language" target="_parent">
<polygon fill="none" stroke="black" points="903,-1330 793,-1330 793,-1294 903,-1294 903,-1330"/>
<text text-anchor="middle" x="848" y="-1309.1" font-family="Courier,monospace" font-size="11.00">Tools_Language</text>
</a>
</g>
<!-- \\Tools_Language&#45;&gt;\\Tools -->
<g id="edge9" class="edge"><title>\\Tools_Language&#45;&gt;\\Tools</title>
<path fill="none" stroke="black" d="M792.356,-1329.55C785.361,-1332.4 778.416,-1335.56 772,-1339 736.753,-1357.91 735.396,-1374.37 700,-1393 686.535,-1400.09 670.836,-1405.87 656.929,-1410.23"/>
<polygon fill="none" stroke="black" points="655.748,-1406.93 647.177,-1413.16 657.761,-1413.64 655.748,-1406.93"/>
</g>
<!-- \\Tools_CoffeeScript -->
<g id="node6" class="node"><title>\\Tools_CoffeeScript</title>
<a xlink:href="classes.tools.coffeescript.html" xlink:title="Tools_CoffeeScript" target="_parent">
<polygon fill="none" stroke="black" points="917,-1492 779,-1492 779,-1456 917,-1456 917,-1492"/>
<text text-anchor="middle" x="848" y="-1471.1" font-family="Courier,monospace" font-size="11.00">Tools_CoffeeScript</text>
</a>
</g>
<!-- \\Tools_CoffeeScript&#45;&gt;\\Tools -->
<g id="edge11" class="edge"><title>\\Tools_CoffeeScript&#45;&gt;\\Tools</title>
<path fill="none" stroke="black" d="M778.974,-1457.65C738.999,-1448.18 690.239,-1436.64 657.344,-1428.84"/>
<polygon fill="none" stroke="black" points="657.79,-1425.35 647.253,-1426.45 656.177,-1432.17 657.79,-1425.35"/>
</g>
<!-- \\File -->
<g id="node7" class="node"><title>\\File</title>
<a xlink:href="classes.file.html" xlink:title="File" target="_parent">
<polygon fill="none" stroke="black" points="875,-466 821,-466 821,-430 875,-430 875,-466"/>
<text text-anchor="middle" x="848" y="-445.1" font-family="Courier,monospace" font-size="11.00">File</text>
</a>
</g>
<!-- \\Kohana_File -->
<g id="node45" class="node"><title>\\Kohana_File</title>
<ellipse fill="none" stroke="black" cx="620" cy="-180" rx="72.832" ry="18.3848"/>
<text text-anchor="middle" x="620" y="-176.4" font-family="Times Roman,serif" font-size="14.00" fill="gray">\Kohana_File</text>
</g>
<!-- \\File&#45;&gt;\\Kohana_File -->
<g id="edge13" class="edge"><title>\\File&#45;&gt;\\Kohana_File</title>
<path fill="none" stroke="black" d="M820.87,-444.44C804.716,-440.989 784.914,-434.224 772,-421 700.415,-347.697 774.212,-272.643 700,-202 697.09,-199.23 693.865,-196.802 690.427,-194.676"/>
<polygon fill="none" stroke="black" points="691.984,-191.54 681.504,-189.985 688.726,-197.736 691.984,-191.54"/>
</g>
<!-- \\Valid -->
<g id="node8" class="node"><title>\\Valid</title>
<a xlink:href="classes.valid.html" xlink:title="Valid" target="_parent">
<polygon fill="none" stroke="black" points="875,-412 821,-412 821,-376 875,-376 875,-412"/>
<text text-anchor="middle" x="848" y="-391.1" font-family="Courier,monospace" font-size="11.00">Valid</text>
</a>
</g>
<!-- \\Kohana_Valid -->
<g id="node47" class="node"><title>\\Kohana_Valid</title>
<ellipse fill="none" stroke="black" cx="620" cy="-126" rx="79.9031" ry="18.3848"/>
<text text-anchor="middle" x="620" y="-122.4" font-family="Times Roman,serif" font-size="14.00" fill="gray">\Kohana_Valid</text>
</g>
<!-- \\Valid&#45;&gt;\\Kohana_Valid -->
<g id="edge15" class="edge"><title>\\Valid&#45;&gt;\\Kohana_Valid</title>
<path fill="none" stroke="black" d="M820.902,-390.409C804.76,-386.946 784.959,-380.179 772,-367 701.641,-295.448 770.925,-223.992 700,-153 696.275,-149.272 692.019,-146.058 687.453,-143.288"/>
<polygon fill="none" stroke="black" points="688.83,-140.057 678.352,-138.489 685.565,-146.249 688.83,-140.057"/>
</g>
<!-- \\Pretty_Form -->
<g id="node9" class="node"><title>\\Pretty_Form</title>
<a xlink:href="classes.pretty.form.html" xlink:title="Pretty_Form" target="_parent">
<polygon fill="none" stroke="black" points="665,-1384 575,-1384 575,-1348 665,-1348 665,-1384"/>
<text text-anchor="middle" x="620" y="-1363.1" font-family="Courier,monospace" font-size="11.00">Pretty_Form</text>
</a>
</g>
<!-- \\Singleton -->
<g id="node25" class="node"><title>\\Singleton</title>
<a xlink:href="classes.singleton.html" xlink:title="Singleton" target="_parent">
<polygon fill="none" stroke="black" points="393,-1384 317,-1384 317,-1348 393,-1348 393,-1384"/>
<text text-anchor="middle" x="355" y="-1363.1" font-family="Courier,monospace" font-size="11.00">Singleton</text>
</a>
</g>
<!-- \\Pretty_Form&#45;&gt;\\Singleton -->
<g id="edge17" class="edge"><title>\\Pretty_Form&#45;&gt;\\Singleton</title>
<path fill="none" stroke="black" d="M574.445,-1366C526.881,-1366 452.554,-1366 403.81,-1366"/>
<polygon fill="none" stroke="black" points="403.514,-1362.5 393.514,-1366 403.514,-1369.5 403.514,-1362.5"/>
</g>
<!-- \\Model -->
<g id="node10" class="node"><title>\\Model</title>
<a xlink:href="classes.model.html" xlink:title="Model" target="_parent">
<polygon fill="none" stroke="black" points="647,-1114 593,-1114 593,-1078 647,-1078 647,-1114"/>
<text text-anchor="middle" x="620" y="-1093.1" font-family="Courier,monospace" font-size="11.00">Model</text>
</a>
</g>
<!-- \\Base_Model -->
<g id="node16" class="node"><title>\\Base_Model</title>
<a xlink:href="classes.base.model.html" xlink:title="Base_Model" target="_parent">
<polygon fill="none" stroke="black" points="397,-1114 313,-1114 313,-1078 397,-1078 397,-1114"/>
<text text-anchor="middle" x="355" y="-1093.1" font-family="Courier,monospace" font-size="11.00">Base_Model</text>
</a>
</g>
<!-- \\Model&#45;&gt;\\Base_Model -->
<g id="edge19" class="edge"><title>\\Model&#45;&gt;\\Base_Model</title>
<path fill="none" stroke="black" d="M592.638,-1096C549.066,-1096 463.159,-1096 407.45,-1096"/>
<polygon fill="none" stroke="black" points="407.416,-1092.5 397.416,-1096 407.416,-1099.5 407.416,-1092.5"/>
</g>
<!-- \\Dir -->
<g id="node11" class="node"><title>\\Dir</title>
<a xlink:href="classes.dir.html" xlink:title="Dir" target="_parent">
<polygon fill="none" stroke="black" points="875,-1168 821,-1168 821,-1132 875,-1132 875,-1168"/>
<text text-anchor="middle" x="848" y="-1147.1" font-family="Courier,monospace" font-size="11.00">Dir</text>
</a>
</g>
<!-- \\I18n -->
<g id="node12" class="node"><title>\\I18n</title>
<a xlink:href="classes.i18n.html" xlink:title="I18n" target="_parent">
<polygon fill="none" stroke="black" points="875,-790 821,-790 821,-754 875,-754 875,-790"/>
<text text-anchor="middle" x="848" y="-769.1" font-family="Courier,monospace" font-size="11.00">I18n</text>
</a>
</g>
<!-- \\Base_I18n -->
<g id="node17" class="node"><title>\\Base_I18n</title>
<a xlink:href="classes.base.i18n.html" xlink:title="Base_I18n" target="_parent">
<polygon fill="none" stroke="black" points="658,-763 582,-763 582,-727 658,-727 658,-763"/>
<text text-anchor="middle" x="620" y="-742.1" font-family="Courier,monospace" font-size="11.00">Base_I18n</text>
</a>
</g>
<!-- \\I18n&#45;&gt;\\Base_I18n -->
<g id="edge21" class="edge"><title>\\I18n&#45;&gt;\\Base_I18n</title>
<path fill="none" stroke="black" d="M820.95,-768.797C783.554,-764.368 715.426,-756.3 668.96,-750.798"/>
<polygon fill="none" stroke="black" points="669.155,-747.297 658.812,-749.596 668.331,-754.248 669.155,-747.297"/>
</g>
<!-- \\Base_Db_Sanitize -->
<g id="node13" class="node"><title>\\Base_Db_Sanitize</title>
<a xlink:href="classes.base.db.sanitize.html" xlink:title="Base_Db_Sanitize" target="_parent">
<polygon fill="none" stroke="black" points="910,-1060 786,-1060 786,-1024 910,-1024 910,-1060"/>
<text text-anchor="middle" x="848" y="-1039.1" font-family="Courier,monospace" font-size="11.00">Base_Db_Sanitize</text>
</a>
</g>
<!-- \\Base_Db_Validation -->
<g id="node14" class="node"><title>\\Base_Db_Validation</title>
<a xlink:href="classes.base.db.validation.html" xlink:title="Base_Db_Validation" target="_parent">
<polygon fill="none" stroke="black" points="917,-1006 779,-1006 779,-970 917,-970 917,-1006"/>
<text text-anchor="middle" x="848" y="-985.1" font-family="Courier,monospace" font-size="11.00">Base_Db_Validation</text>
</a>
</g>
<!-- \\Base_ACL&#45;&gt;\\Singleton -->
<g id="edge23" class="edge"><title>\\Base_ACL&#45;&gt;\\Singleton</title>
<path fill="none" stroke="black" d="M584.536,-1482.93C536.772,-1458.6 451.768,-1415.3 399.687,-1388.77"/>
<polygon fill="none" stroke="black" points="401.176,-1385.6 390.677,-1384.18 397.999,-1391.83 401.176,-1385.6"/>
</g>
<!-- \\Kohana_Model -->
<g id="node53" class="node"><title>\\Kohana_Model</title>
<ellipse fill="none" stroke="black" cx="85" cy="-1096" rx="84.8528" ry="18.3848"/>
<text text-anchor="middle" x="85" y="-1092.4" font-family="Times Roman,serif" font-size="14.00" fill="gray">\Kohana_Model</text>
</g>
<!-- \\Base_Model&#45;&gt;\\Kohana_Model -->
<g id="edge25" class="edge"><title>\\Base_Model&#45;&gt;\\Kohana_Model</title>
<path fill="none" stroke="black" d="M312.812,-1096C277.444,-1096 225.604,-1096 180.307,-1096"/>
<polygon fill="none" stroke="black" points="180.152,-1092.5 170.152,-1096 180.152,-1099.5 180.152,-1092.5"/>
</g>
<!-- \\Kohana_I18n -->
<g id="node55" class="node"><title>\\Kohana_I18n</title>
<ellipse fill="none" stroke="black" cx="355" cy="-180" rx="77.9889" ry="18.3848"/>
<text text-anchor="middle" x="355" y="-176.4" font-family="Times Roman,serif" font-size="14.00" fill="gray">\Kohana_I18n</text>
</g>
<!-- \\Base_I18n&#45;&gt;\\Kohana_I18n -->
<g id="edge27" class="edge"><title>\\Base_I18n&#45;&gt;\\Kohana_I18n</title>
<path fill="none" stroke="black" d="M581.365,-734.329C566.165,-728.189 549.989,-718.855 540,-705 407.927,-521.812 623.638,-365.639 468,-202 460.975,-194.614 452.265,-189.298 442.819,-185.52"/>
<polygon fill="none" stroke="black" points="443.757,-182.142 433.163,-182.235 441.503,-188.769 443.757,-182.142"/>
</g>
<!-- \\Base_Media -->
<g id="node18" class="node"><title>\\Base_Media</title>
<a xlink:href="classes.base.media.html" xlink:title="Base_Media" target="_parent">
<polygon fill="none" stroke="black" points="662,-1330 578,-1330 578,-1294 662,-1294 662,-1330"/>
<text text-anchor="middle" x="620" y="-1309.1" font-family="Courier,monospace" font-size="11.00">Base_Media</text>
</a>
</g>
<!-- \\Base_Media&#45;&gt;\\Singleton -->
<g id="edge29" class="edge"><title>\\Base_Media&#45;&gt;\\Singleton</title>
<path fill="none" stroke="black" d="M577.717,-1320.62C530.279,-1330.28 453.46,-1345.94 403.59,-1356.1"/>
<polygon fill="none" stroke="black" points="402.784,-1352.69 393.685,-1358.12 404.182,-1359.55 402.784,-1352.69"/>
</g>
<!-- \\Base_Language -->
<g id="node19" class="node"><title>\\Base_Language</title>
<a xlink:href="classes.base.language.html" xlink:title="Base_Language" target="_parent">
<polygon fill="none" stroke="black" points="672,-898 568,-898 568,-862 672,-862 672,-898"/>
<text text-anchor="middle" x="620" y="-877.1" font-family="Courier,monospace" font-size="11.00">Base_Language</text>
</a>
</g>
<!-- \\Base_Auth -->
<g id="node20" class="node"><title>\\Base_Auth</title>
<a xlink:href="classes.base.auth.html" xlink:title="Base_Auth" target="_parent">
<polygon fill="none" stroke="black" points="658,-1276 582,-1276 582,-1240 658,-1240 658,-1276"/>
<text text-anchor="middle" x="620" y="-1255.1" font-family="Courier,monospace" font-size="11.00">Base_Auth</text>
</a>
</g>
<!-- \\Base_Auth&#45;&gt;\\Singleton -->
<g id="edge31" class="edge"><title>\\Base_Auth&#45;&gt;\\Singleton</title>
<path fill="none" stroke="black" d="M581.1,-1270.37C567.959,-1274.75 553.261,-1279.87 540,-1285 492.872,-1303.23 440.174,-1326.61 403.114,-1343.56"/>
<polygon fill="none" stroke="black" points="401.197,-1340.59 393.569,-1347.94 404.117,-1346.95 401.197,-1340.59"/>
</g>
<!-- \\Base_Date -->
<g id="node21" class="node"><title>\\Base_Date</title>
<a xlink:href="classes.base.date.html" xlink:title="Base_Date" target="_parent">
<polygon fill="none" stroke="black" points="658,-696 582,-696 582,-660 658,-660 658,-696"/>
<text text-anchor="middle" x="620" y="-675.1" font-family="Courier,monospace" font-size="11.00">Base_Date</text>
</a>
</g>
<!-- \\Kohana_Date -->
<g id="node59" class="node"><title>\\Kohana_Date</title>
<ellipse fill="none" stroke="black" cx="355" cy="-126" rx="79.9031" ry="18.3848"/>
<text text-anchor="middle" x="355" y="-122.4" font-family="Times Roman,serif" font-size="14.00" fill="gray">\Kohana_Date</text>
</g>
<!-- \\Base_Date&#45;&gt;\\Kohana_Date -->
<g id="edge33" class="edge"><title>\\Base_Date&#45;&gt;\\Kohana_Date</title>
<path fill="none" stroke="black" d="M581.384,-666.814C566.187,-660.479 550.009,-650.948 540,-637 413.206,-460.308 614.958,-313.312 468,-153 460.591,-144.918 451.233,-139.05 441.089,-134.822"/>
<polygon fill="none" stroke="black" points="442.179,-131.494 431.584,-131.383 439.797,-138.076 442.179,-131.494"/>
</g>
<!-- \\Controller_Languages -->
<g id="node22" class="node"><title>\\Controller_Languages</title>
<a xlink:href="classes.controller.languages.html" xlink:title="Controller_Languages" target="_parent">
<polygon fill="none" stroke="black" points="924,-628 772,-628 772,-592 924,-592 924,-628"/>
<text text-anchor="middle" x="848" y="-607.1" font-family="Courier,monospace" font-size="11.00">Controller_Languages</text>
</a>
</g>
<!-- \\Controller_Core -->
<g id="node24" class="node"><title>\\Controller_Core</title>
<a xlink:href="classes.controller.core.html" xlink:title="Controller_Core" target="_parent">
<polygon fill="none" stroke="black" points="679,-628 561,-628 561,-592 679,-592 679,-628"/>
<text text-anchor="middle" x="620" y="-607.1" font-family="Courier,monospace" font-size="11.00">Controller_Core</text>
</a>
</g>
<!-- \\Controller_Languages&#45;&gt;\\Controller_Core -->
<g id="edge35" class="edge"><title>\\Controller_Languages&#45;&gt;\\Controller_Core</title>
<path fill="none" stroke="black" d="M771.762,-610C745.134,-610 715.407,-610 689.368,-610"/>
<polygon fill="none" stroke="black" points="689.21,-606.5 679.21,-610 689.21,-613.5 689.21,-606.5"/>
</g>
<!-- \\Controller_Users -->
<g id="node23" class="node"><title>\\Controller_Users</title>
<a xlink:href="classes.controller.users.html" xlink:title="Controller_Users" target="_parent">
<polygon fill="none" stroke="black" points="910,-682 786,-682 786,-646 910,-646 910,-682"/>
<text text-anchor="middle" x="848" y="-661.1" font-family="Courier,monospace" font-size="11.00">Controller_Users</text>
</a>
</g>
<!-- \\Controller_Users&#45;&gt;\\Controller_Core -->
<g id="edge37" class="edge"><title>\\Controller_Users&#45;&gt;\\Controller_Core</title>
<path fill="none" stroke="black" d="M785.396,-649.173C755.538,-642.101 719.731,-633.621 689.081,-626.361"/>
<polygon fill="none" stroke="black" points="689.862,-622.95 679.325,-624.051 688.249,-629.761 689.862,-622.95"/>
</g>
<!-- \\Controller_Template -->
<g id="node63" class="node"><title>\\Controller_Template</title>
<ellipse fill="none" stroke="black" cx="355" cy="-72" rx="113.137" ry="18.3848"/>
<text text-anchor="middle" x="355" y="-68.4" font-family="Times Roman,serif" font-size="14.00" fill="gray">\Controller_Template</text>
</g>
<!-- \\Controller_Core&#45;&gt;\\Controller_Template -->
<g id="edge39" class="edge"><title>\\Controller_Core&#45;&gt;\\Controller_Template</title>
<path fill="none" stroke="black" d="M560.793,-602.275C552.916,-598.965 545.631,-594.365 540,-588 394.438,-423.472 616.323,-261.043 468,-99 464.085,-94.7224 459.623,-91.0651 454.788,-87.9427"/>
<polygon fill="none" stroke="black" points="456.157,-84.6983 445.719,-82.8815 452.746,-90.8109 456.157,-84.6983"/>
</g>
<!-- \\Media -->
<g id="node26" class="node"><title>\\Media</title>
<a xlink:href="classes.media.html" xlink:title="Media" target="_parent">
<polygon fill="none" stroke="black" points="875,-844 821,-844 821,-808 875,-808 875,-844"/>
<text text-anchor="middle" x="848" y="-823.1" font-family="Courier,monospace" font-size="11.00">Media</text>
</a>
</g>
<!-- \\Language -->
<g id="node27" class="node"><title>\\Language</title>
<a xlink:href="classes.language.html" xlink:title="Language" target="_parent">
<polygon fill="none" stroke="black" points="883,-898 813,-898 813,-862 883,-862 883,-898"/>
<text text-anchor="middle" x="848" y="-877.1" font-family="Courier,monospace" font-size="11.00">Language</text>
</a>
</g>
<!-- \\Language&#45;&gt;\\Base_Language -->
<g id="edge41" class="edge"><title>\\Language&#45;&gt;\\Base_Language</title>
<path fill="none" stroke="black" d="M812.375,-880C777.664,-880 724.163,-880 682.386,-880"/>
<polygon fill="none" stroke="black" points="682.308,-876.5 672.308,-880 682.308,-883.5 682.308,-876.5"/>
</g>
<!-- \\Exception_Json -->
<g id="node28" class="node"><title>\\Exception_Json</title>
<a xlink:href="classes.exception.json.html" xlink:title="Exception_Json" target="_parent">
<polygon fill="none" stroke="black" points="903,-304 793,-304 793,-268 903,-268 903,-304"/>
<text text-anchor="middle" x="848" y="-283.1" font-family="Courier,monospace" font-size="11.00">Exception_Json</text>
</a>
</g>
<!-- \\Exception -->
<g id="node66" class="node"><title>\\Exception</title>
<ellipse fill="none" stroke="black" cx="620" cy="-72" rx="62.9325" ry="18.3848"/>
<text text-anchor="middle" x="620" y="-68.4" font-family="Times Roman,serif" font-size="14.00" fill="gray">\Exception</text>
</g>
<!-- \\Exception_Json&#45;&gt;\\Exception -->
<g id="edge43" class="edge"><title>\\Exception_Json&#45;&gt;\\Exception</title>
<path fill="none" stroke="black" d="M792.265,-272.225C784.892,-268.748 777.869,-264.409 772,-259 714.66,-206.152 757.758,-151.391 700,-99 694.476,-93.9896 687.989,-89.9042 681.138,-86.5742"/>
<polygon fill="none" stroke="black" points="682.198,-83.22 671.628,-82.4855 679.433,-89.6508 682.198,-83.22"/>
</g>
<!-- \\Exception_Tools -->
<g id="node29" class="node"><title>\\Exception_Tools</title>
<a xlink:href="classes.exception.tools.html" xlink:title="Exception_Tools" target="_parent">
<polygon fill="none" stroke="black" points="907,-358 789,-358 789,-322 907,-322 907,-358"/>
<text text-anchor="middle" x="848" y="-337.1" font-family="Courier,monospace" font-size="11.00">Exception_Tools</text>
</a>
</g>
<!-- \\Exception_Tools&#45;&gt;\\Exception -->
<g id="edge45" class="edge"><title>\\Exception_Tools&#45;&gt;\\Exception</title>
<path fill="none" stroke="black" d="M788.723,-325.185C782.564,-321.901 776.811,-317.892 772,-313 701.641,-241.448 770.925,-169.992 700,-99 694.8,-93.7955 688.565,-89.594 681.899,-86.2021"/>
<polygon fill="none" stroke="black" points="683.159,-82.9319 672.6,-82.0606 680.311,-89.3264 683.159,-82.9319"/>
</g>
<!-- \\Auth -->
<g id="node30" class="node"><title>\\Auth</title>
<a xlink:href="classes.auth.html" xlink:title="Auth" target="_parent">
<polygon fill="none" stroke="black" points="875,-1276 821,-1276 821,-1240 875,-1240 875,-1276"/>
<text text-anchor="middle" x="848" y="-1255.1" font-family="Courier,monospace" font-size="11.00">Auth</text>
</a>
</g>
<!-- \\Auth&#45;&gt;\\Base_Auth -->
<g id="edge47" class="edge"><title>\\Auth&#45;&gt;\\Base_Auth</title>
<path fill="none" stroke="black" d="M820.95,-1258C783.554,-1258 715.426,-1258 668.96,-1258"/>
<polygon fill="none" stroke="black" points="668.812,-1254.5 658.812,-1258 668.812,-1261.5 668.812,-1254.5"/>
</g>
<!-- \\Tools&#45;&gt;\\Singleton -->
<g id="edge49" class="edge"><title>\\Tools&#45;&gt;\\Singleton</title>
<path fill="none" stroke="black" d="M592.638,-1414.42C548.07,-1405.34 459.209,-1387.24 403.678,-1375.92"/>
<polygon fill="none" stroke="black" points="404.213,-1372.46 393.715,-1373.89 402.815,-1379.32 404.213,-1372.46"/>
</g>
<!-- \\Collection -->
<g id="node32" class="node"><title>\\Collection</title>
<a xlink:href="classes.collection.html" xlink:title="Collection" target="_parent">
<polygon fill="none" stroke="black" points="890,-574 806,-574 806,-538 890,-538 890,-574"/>
<text text-anchor="middle" x="848" y="-553.1" font-family="Courier,monospace" font-size="11.00">Collection</text>
</a>
</g>
<!-- \\Error -->
<g id="node33" class="node"><title>\\Error</title>
<a xlink:href="classes.error.html" xlink:title="Error" target="_parent">
<polygon fill="none" stroke="black" points="875,-520 821,-520 821,-484 875,-484 875,-520"/>
<text text-anchor="middle" x="848" y="-499.1" font-family="Courier,monospace" font-size="11.00">Error</text>
</a>
</g>
<!-- \\Date -->
<g id="node34" class="node"><title>\\Date</title>
<a xlink:href="classes.date.html" xlink:title="Date" target="_parent">
<polygon fill="none" stroke="black" points="875,-736 821,-736 821,-700 875,-700 875,-736"/>
<text text-anchor="middle" x="848" y="-715.1" font-family="Courier,monospace" font-size="11.00">Date</text>
</a>
</g>
<!-- \\Date&#45;&gt;\\Base_Date -->
<g id="edge51" class="edge"><title>\\Date&#45;&gt;\\Base_Date</title>
<path fill="none" stroke="black" d="M820.95,-713.254C783.476,-706.68 715.14,-694.691 668.668,-686.538"/>
<polygon fill="none" stroke="black" points="669.267,-683.09 658.812,-684.809 668.057,-689.985 669.267,-683.09"/>
</g>
<!-- \\Model_User -->
<g id="node35" class="node"><title>\\Model_User</title>
<a xlink:href="classes.model.user.html" xlink:title="Model_User" target="_parent">
<polygon fill="none" stroke="black" points="890,-1114 806,-1114 806,-1078 890,-1078 890,-1114"/>
<text text-anchor="middle" x="848" y="-1093.1" font-family="Courier,monospace" font-size="11.00">Model_User</text>
</a>
</g>
<!-- \\Model_User&#45;&gt;\\Model -->
<g id="edge53" class="edge"><title>\\Model_User&#45;&gt;\\Model</title>
<path fill="none" stroke="black" d="M805.916,-1096C763.304,-1096 698.033,-1096 657.245,-1096"/>
<polygon fill="none" stroke="black" points="657.18,-1092.5 647.18,-1096 657.18,-1099.5 657.18,-1092.5"/>
</g>
<!-- \\Model_Access_Rule -->
<g id="node36" class="node"><title>\\Model_Access_Rule</title>
<a xlink:href="classes.model.access.rule.html" xlink:title="Model_Access_Rule" target="_parent">
<polygon fill="none" stroke="black" points="913,-952 783,-952 783,-916 913,-916 913,-952"/>
<text text-anchor="middle" x="848" y="-931.1" font-family="Courier,monospace" font-size="11.00">Model_Access_Rule</text>
</a>
</g>
<!-- \\Model_Access_Rule&#45;&gt;\\Model -->
<g id="edge55" class="edge"><title>\\Model_Access_Rule&#45;&gt;\\Model</title>
<path fill="none" stroke="black" d="M789.674,-952.082C783.551,-954.751 777.545,-957.723 772,-961 720.679,-991.332 670.911,-1040.41 642.988,-1070.29"/>
<polygon fill="none" stroke="black" points="640.253,-1068.09 636.04,-1077.81 645.396,-1072.84 640.253,-1068.09"/>
</g>
<!-- \\Model_Language -->
<g id="node37" class="node"><title>\\Model_Language</title>
<a xlink:href="classes.model.language.html" xlink:title="Model_Language" target="_parent">
<polygon fill="none" stroke="black" points="903,-1222 793,-1222 793,-1186 903,-1186 903,-1222"/>
<text text-anchor="middle" x="848" y="-1201.1" font-family="Courier,monospace" font-size="11.00">Model_Language</text>
</a>
</g>
<!-- \\Model_Language&#45;&gt;\\Model -->
<g id="edge57" class="edge"><title>\\Model_Language&#45;&gt;\\Model</title>
<path fill="none" stroke="black" d="M794.048,-1185.95C786.573,-1183.13 779.046,-1180.11 772,-1177 731.215,-1159.01 686.386,-1134.5 656.053,-1117.17"/>
<polygon fill="none" stroke="black" points="657.539,-1113.99 647.126,-1112.04 654.05,-1120.06 657.539,-1113.99"/>
</g>
<!-- \\Text -->
<g id="node38" class="node"><title>\\Text</title>
<a xlink:href="classes.text.html" xlink:title="Text" target="_parent">
<polygon fill="none" stroke="black" points="875,-250 821,-250 821,-214 875,-214 875,-250"/>
<text text-anchor="middle" x="848" y="-229.1" font-family="Courier,monospace" font-size="11.00">Text</text>
</a>
</g>
<!-- \\Kohana_Text -->
<g id="node75" class="node"><title>\\Kohana_Text</title>
<ellipse fill="none" stroke="black" cx="620" cy="-18" rx="77.0746" ry="18.3848"/>
<text text-anchor="middle" x="620" y="-14.4" font-family="Times Roman,serif" font-size="14.00" fill="gray">\Kohana_Text</text>
</g>
<!-- \\Text&#45;&gt;\\Kohana_Text -->
<g id="edge59" class="edge"><title>\\Text&#45;&gt;\\Kohana_Text</title>
<path fill="none" stroke="black" d="M838.513,-213.98C818.122,-176.946 766.525,-91.8327 700,-45 694.73,-41.2898 688.91,-38.0577 682.885,-35.2487"/>
<polygon fill="none" stroke="black" points="683.87,-31.8644 673.297,-31.1752 681.132,-38.307 683.87,-31.8644"/>
</g>
</g>
</svg>
